<?xml version="1.0" encoding="UTF-8"?> <svg xmlns="http://www.w3.org/2000/svg" width="16" height="16" viewBox="0 0 16 16" fill="none"><rect width="16" height="16" rx="4" fill="white"></rect><path d="M13.914 0.00571594C12.8668 0.144013 9.43309 0.597017 8.6298 0.702918L8.60454 0.706185L8.6204 0.724699C8.84441 0.984959 9.10132 1.39114 9.05317 1.84714L8.9839 2.50487L11.333 2.19506C11.2851 2.64616 11.0861 4.46063 10.8753 6.38045C10.6292 8.62179 10.3506 11.1607 10.2781 11.8473C9.14741 12.3199 8.1069 12.1979 7.579 12.08L7.9046 8.99122L7.8911 8.98932C7.71758 8.96318 7.52911 8.91118 7.33122 8.83441C6.92634 8.67733 6.51498 8.43803 6.07957 8.1843L6.03438 8.1579L6.03203 8.17968C5.98564 8.62043 5.62656 12.0299 5.5285 12.9605L5.52761 12.9689L5.53555 12.9732C6.22228 13.3574 6.97273 13.6029 7.76663 13.7026L7.70114 14.3241C6.77806 14.2114 5.90872 13.9234 5.11688 13.4674L5.16413 13.0187C5.32092 11.5304 5.64476 8.45709 5.69614 7.96733L5.69703 7.95889L5.6894 7.95453C4.1342 7.0488 3.26952 7.40162 3.26952 7.40162C3.26952 7.40162 3.76837 7.71251 3.69438 8.38413L3.5282 9.96148C3.47593 10.4586 3.29566 10.8789 3.00734 11.1773L3 11.1849L3.00588 11.1936C3.13271 11.3812 3.33941 11.7544 3.29802 12.1456L3.09307 14.0902L3.09866 14.0949C3.83883 14.6968 4.67795 15.1669 5.59281 15.4923C6.53967 15.8293 7.53879 16 8.56228 16C9.03821 16 9.51561 15.9624 9.98097 15.8878L10 15.8848L9.99152 15.8685C9.78747 15.48 9.58577 15.0183 9.63656 14.5381L9.73081 13.644C10.8773 13.4293 11.9193 12.9049 12.7446 12.1271L12.7543 12.1181L12.7449 12.1086C12.3876 11.743 12.316 11.0921 12.3632 10.6453L12.6818 7.63765C12.7249 7.21132 12.8999 6.8321 13.1882 6.54107L13.1956 6.53345L13.1897 6.52474C12.8756 6.04968 12.8973 5.57408 12.9114 5.43987C12.9569 5.00674 13.0608 4.11134 13.1612 3.24508C13.2643 2.35541 13.3712 1.43551 13.419 0.979513C13.4807 0.62152 13.6563 0.292654 13.9267 0.0283105L13.9554 0L13.914 0.00544344V0.00571594Z" fill="#303030"></path><path d="M10.2685 5.90372L10.272 5.91516L10.5465 5.87895L10.5477 5.86833C10.5503 5.8441 10.8043 3.45439 10.8433 3.08551L10.8451 3.06836L3.33887 4.05849L3.35707 4.07728C3.87234 4.60869 3.8694 5.21551 3.84415 5.45181V5.45507C3.84415 5.45507 3.833 5.55934 3.80482 5.82859L3.80307 5.84574L4.60135 5.74038L4.42316 5.90291C4.0726 6.22279 3.41405 6.82335 3.41405 6.82335L3.58785 6.90965C3.58785 6.90965 4.00975 6.5247 5.104 6.9728C5.5582 7.15874 6.00156 7.4171 6.43051 7.66701C7.07496 8.04243 7.688 8.39961 8.15071 8.39933C8.20621 8.39933 8.25933 8.39416 8.31042 8.38327C8.31893 8.38137 8.32658 8.38763 8.3257 8.39552C8.27168 8.90924 8.14954 10.0662 8.06527 10.8655L7.99041 11.5772L8.00391 11.5791C8.18741 11.6058 8.37267 11.6191 8.55852 11.6191C8.74437 11.6191 8.94049 11.6049 9.13104 11.5769C9.61988 11.5045 9.9954 11.1329 10.0438 10.6731L10.4103 7.19522L10.3882 7.20312C9.76405 7.42472 8.97926 6.96763 8.14808 6.48359C7.40027 6.04801 6.63016 5.59936 5.88382 5.57078L9.12605 5.14309C9.58377 5.08265 10.1284 5.445 10.2685 5.90318V5.90372Z" fill="#303030"></path></svg> 