<svg width="37" height="36" viewBox="0 0 37 36" fill="currentColor" xmlns="http://www.w3.org/2000/svg">
<g clip-path="url(#clip0_187_3327)">
<path d="M32.8217 3.37639C28.3198 -1.12551 20.9951 -1.12544 16.4932 3.37646C13.4181 6.45151 12.35 10.9832 13.6815 15.0945L0.678633 28.0975C0.481794 28.2943 0.371094 28.5608 0.371094 28.8396V34.7776C0.371094 35.3577 0.840555 35.8272 1.42072 35.8272H7.35865C7.63743 35.8272 7.90396 35.7165 8.10073 35.5196L9.58497 34.0344C9.81148 33.8078 9.92218 33.4901 9.8853 33.1713L9.70078 31.5763L11.9107 31.3682C12.413 31.3211 12.8097 30.9244 12.8569 30.4221L13.065 28.2122L14.6599 28.3977C14.9561 28.4376 15.2544 28.3382 15.4789 28.1394C15.7023 27.9395 15.8304 27.6545 15.8304 27.3553V25.4009H17.7493C18.0281 25.4009 18.2946 25.2902 18.4914 25.0934L21.1831 22.4373C25.2934 23.7698 29.7467 22.7822 32.8217 19.705C37.3236 15.2032 37.3236 7.8783 32.8217 3.37639ZM29.8524 10.7986C28.6244 12.0266 26.6276 12.0266 25.3996 10.7986C24.1717 9.57064 24.1717 7.57391 25.3996 6.34592C26.6276 5.11793 28.6244 5.11793 29.8524 6.34592C31.0803 7.57391 31.0803 9.57064 29.8524 10.7986Z" fill="currentColor"/>
</g>
<defs>
<clipPath id="clip0_187_3327">
<rect width="35.8271" height="35.8271" fill="white" transform="translate(0.371094)"/>
</clipPath>
</defs>
</svg>
