<svg width="47" height="46" viewBox="0 0 47 46" fill="currentColor" xmlns="http://www.w3.org/2000/svg">
<path d="M11.1622 9.91997C12.6135 8.97733 13.815 8.88349 15.1205 9.59253C16.8679 10.5416 17.5094 12.7172 16.5534 14.4518C15.5973 16.1864 13.4551 16.7278 11.6584 15.8741C9.35664 14.7805 8.22017 12.4346 8.15193 10.6978V10.6975C9.22394 10.9573 10.2454 10.5155 11.1622 9.91997ZM25.626 19.1521V21.2621H26.6165C26.4499 23.4702 24.6961 25.2386 22.4831 25.4432C22.6226 25.1835 22.7031 24.8877 22.7045 24.573C22.7096 23.5395 21.8693 22.6979 20.8283 22.693L13.7419 22.6591C13.7419 22.6591 12.0801 19.11 11.5606 17.8706C11.5536 17.854 11.5453 17.8388 11.5379 17.8225C11.5354 17.8163 11.5338 17.8093 11.5309 17.8032C10.9117 16.4817 10.1571 15.6743 8.70612 15.6743C6.96487 15.6743 5.93337 17.222 5.25171 18.8124C3.86624 22.0446 3.1952 26.5414 3.54269 30.0766C3.68835 31.3549 3.98921 32.4546 4.63937 33.1669H0.830078L0.830258 45.1739H3.22292V35.5421H14.6877L13.194 42.5302C12.9387 43.7251 13.7073 44.8992 14.911 45.1526C15.0671 45.1855 15.2221 45.2014 15.3755 45.2014C16.4052 45.2014 17.3303 44.4884 17.5526 43.4482L18.5542 38.762L20.9667 43.9204C21.3437 44.7269 22.1484 45.2014 22.9888 45.2012C23.3027 45.2012 23.6219 45.1349 23.9253 44.9953C25.0414 44.4811 25.5261 43.166 25.0079 42.0582L19.7825 30.8837C19.4176 30.1028 18.629 29.6035 17.7618 29.6035H11.3991L11.3923 26.3909L20.6667 26.4348V29.7014H26.7691V45.1537H29.1683V29.7016H46.1713V19.1521H25.626ZM36.4264 2.74575C33.2327 -0.0326717 29.1683 0.1634 29.1683 0.1634V17.7434H33.4153L33.7248 5.89845H34.5303L34.836 17.7434H46.1713C46.1713 17.7434 46.1713 12.1774 46.1713 8.34622C41.2594 7.64951 39.1579 5.12221 36.4264 2.74575Z" fill="currentColor"/>
</svg>
