<svg width="44" height="39" viewBox="0 0 44 39" fill="currentColor" xmlns="http://www.w3.org/2000/svg">
<path d="M37.0145 7.89988L43.311 3.83922C43.4608 3.73943 43.5894 3.61112 43.6895 3.46162C43.7897 3.31211 43.8594 3.14434 43.8947 2.96789C43.93 2.79144 43.9302 2.60976 43.8953 2.43323C43.8604 2.2567 43.791 2.08878 43.6912 1.93905L42.9317 0.799295C42.8319 0.649548 42.7036 0.520926 42.5541 0.420774C42.4046 0.320621 42.2368 0.250901 42.0603 0.215595C41.8839 0.180288 41.7022 0.180087 41.5257 0.215003C41.3492 0.249919 41.1812 0.319268 41.0315 0.41909L31.6069 6.49894C27.3458 5.7471 23.3032 5.66917 21.9999 5.66917C18.8786 5.66917 0.078125 6.05879 0.078125 15.2728V28.9935C0.078125 31.5856 2.433 33.9328 6.24361 35.6608V26.935C6.24361 26.3899 6.46014 25.8672 6.84555 25.4817C7.23097 25.0963 7.75371 24.8798 8.29877 24.8798C8.84383 24.8798 9.36657 25.0963 9.75199 25.4817C10.1374 25.8672 10.3539 26.3899 10.3539 26.935V37.1191C13.1841 37.8992 16.4398 38.4088 19.9447 38.5518V29.6795C19.9447 29.1344 20.1612 28.6117 20.5466 28.2262C20.932 27.8408 21.4548 27.6243 21.9999 27.6243C22.5449 27.6243 23.0677 27.8408 23.4531 28.2262C23.8385 28.6117 24.055 29.1344 24.055 29.6795V38.5518C27.5599 38.4088 30.8156 37.8992 33.6458 37.1191V26.935C33.6458 26.3899 33.8623 25.8672 34.2477 25.4817C34.6331 25.0963 35.1559 24.8798 35.7009 24.8798C36.246 24.8798 36.7687 25.0963 37.1541 25.4817C37.5396 25.8672 37.7561 26.3899 37.7561 26.935V35.6608C41.5667 33.9328 43.9216 31.5856 43.9216 28.9935V15.2728C43.9216 11.5632 40.8594 9.2991 37.0145 7.89988ZM21.9999 20.7609C12.1625 20.7609 4.18845 18.3041 4.18845 15.2728C4.18845 12.2414 12.1625 9.78549 21.9999 9.78549C23.4684 9.78549 24.8882 9.84629 26.254 9.94905L20.0192 13.9737C19.8695 14.0736 19.741 14.202 19.6409 14.3515C19.5408 14.501 19.4712 14.6688 19.436 14.8453C19.4007 15.0217 19.4006 15.2034 19.4356 15.3799C19.4706 15.5564 19.54 15.7242 19.6398 15.8739L20.3994 17.0137C20.4992 17.1634 20.6275 17.292 20.777 17.3922C20.9265 17.4923 21.0943 17.5621 21.2707 17.5974C21.4472 17.6327 21.6289 17.6329 21.8054 17.598C21.9819 17.563 22.1498 17.4937 22.2996 17.3939L32.4589 10.8413C36.9075 11.8347 39.8113 13.448 39.8113 15.2728C39.8113 18.3041 31.8364 20.7609 21.9999 20.7609Z" fill="currentColor"/>
</svg>
