<svg width="56" height="55" viewBox="0 0 56 55" fill="currentColor" xmlns="http://www.w3.org/2000/svg">
<path d="M44.3403 6.05103L25.3864 24.8924C24.5256 25.1051 23.692 25.0639 23.1035 24.4797C21.7096 23.0941 23.7261 20.0638 24.7737 18.6896C25.0753 18.2948 24.9708 18.1581 24.5181 18.3676L20.3713 20.286C19.9192 20.4955 19.4816 21.0613 19.3754 21.5458C19.0473 23.044 18.2707 26.04 17.0899 27.2137C15.7615 28.5341 7.80989 30.0696 5.11962 30.559C4.62899 30.6464 4.22594 31.1164 4.1853 31.6116C3.85205 35.6792 1.816 40.4475 0.951708 42.3181C0.742868 42.7683 0.923112 42.9428 1.37581 42.7343C7.30619 40.0049 11.491 41.3485 12.4499 42.3024C13.2832 43.1313 10.7885 51.0515 9.92565 53.693C9.77197 54.1638 9.99894 54.3535 10.4383 54.1186L18.558 49.7616C18.9972 49.5265 19.4363 48.9417 19.5467 48.4578C20.0771 46.1379 21.6151 39.9125 23.1906 38.346C24.5535 36.9912 26.8834 36.5993 28.1604 36.4839C28.6571 36.4404 29.2614 36.0875 29.5046 35.6552L31.1965 32.6651C31.4415 32.2328 31.3242 32.1359 30.9055 32.4064C29.6367 33.2271 26.9947 34.5537 25.2237 32.793C24.452 32.026 24.5853 30.7272 25.114 29.3181L46.5086 8.04967C46.8934 7.7315 47.854 7.04201 48.6611 7.36891C48.6611 7.36891 51.7164 3.76242 53.7786 3.80103C53.7786 3.80103 54.4843 2.22598 55.1334 0.9729L44.4981 3.3451C44.4981 3.3451 45.3901 4.74994 44.3403 6.05103ZM18.3387 37.6646L17.3206 38.6759C16.9676 39.0266 16.396 39.0266 16.0425 38.6759L13.3275 35.9778C12.9749 35.6257 12.9749 35.058 13.3275 34.7061L14.3456 33.6947C14.6982 33.3435 15.2698 33.3435 15.6233 33.6947L18.3387 36.3927C18.6913 36.7448 18.6913 37.3126 18.3387 37.6646ZM22.4358 32.3209C22.7889 32.6713 22.7889 33.239 22.4358 33.5906L21.4179 34.6033C21.0653 34.9532 20.4935 34.9532 20.14 34.6033L17.4246 31.9039C17.072 31.554 17.072 30.9854 17.4246 30.6342L18.4432 29.622C18.7958 29.2708 19.3676 29.2708 19.7211 29.622L20.1745 30.0722L22.2635 32.1495L22.4358 32.3209Z" fill="currentColor"/>
</svg>
