<svg width="50" height="49" viewBox="0 0 50 49" fill="currentColor" xmlns="http://www.w3.org/2000/svg">
<path d="M47.7626 7.21067L48.8601 6.11319C49.5879 5.38537 49.5879 4.20082 48.8601 3.473L46.1263 0.739168C45.7764 0.389224 45.3015 0.19043 44.8054 0.19043C44.3092 0.19043 43.8344 0.387581 43.4845 0.737525L42.3853 1.835L41.3125 0.762169C40.8673 0.316935 40.1444 0.316935 39.6992 0.762169C39.2539 1.2074 39.2539 1.92865 39.6992 2.37388L40.7736 3.44672L40.2364 3.9856L39.1636 2.91112C38.7183 2.46589 37.9954 2.46589 37.5518 2.91112C37.1066 3.35635 37.1066 4.07924 37.5518 4.52448L38.6247 5.59731L38.0858 6.13619L37.013 5.06336C36.5677 4.61812 35.8465 4.61812 35.4013 5.06336C34.956 5.50859 34.956 6.22984 35.4013 6.67507L36.4741 7.7479L28.3597 15.864C24.4676 13.7972 19.9659 14.0485 17.168 16.8448C16.6505 17.3623 16.2201 17.9406 15.8734 18.5633C15.1209 19.9237 13.6965 20.7813 12.139 20.8092C9.0536 20.8667 6.1374 21.9642 3.94737 24.1526C-1.09313 29.1931 -0.365315 38.0912 5.57059 44.0271C11.5065 49.963 20.4062 50.6908 25.4467 45.6503C27.6351 43.4619 28.7342 40.5457 28.7901 37.4586C28.8197 35.9044 29.6789 34.4751 31.036 33.7243C31.6587 33.3792 32.2353 32.9488 32.7561 32.4313C35.5508 29.635 35.8021 25.1301 33.7353 21.2396L41.8514 13.1252L42.9242 14.1997C43.1493 14.4215 43.4385 14.5332 43.7309 14.5332C44.0233 14.5332 44.3125 14.4215 44.5376 14.1997C44.9828 13.7545 44.9828 13.0316 44.5376 12.5863L43.4631 11.5135L43.9987 10.9763L45.0732 12.0507C45.2983 12.2725 45.5891 12.3842 45.8799 12.3842C46.1723 12.3842 46.4615 12.2725 46.6865 12.0507C47.1318 11.6055 47.1318 10.8826 46.6865 10.4374L45.6121 9.36455L46.1493 8.82567L47.2254 9.90178C47.4472 10.1236 47.7397 10.2353 48.0304 10.2353C48.3212 10.2353 48.612 10.1236 48.8355 9.90178C49.2807 9.45655 49.2807 8.73366 48.8355 8.28843L47.7626 7.21067ZM26.5311 30.5912C24.4528 32.6695 21.0848 32.6695 19.0065 30.5912C16.9282 28.5129 16.9282 25.1449 19.0065 23.0666C21.0848 20.9883 24.4544 20.9883 26.5311 23.0666C28.6094 25.1449 28.611 28.5129 26.5311 30.5912Z" fill="currentColor"/>
</svg>
