<svg width="126" height="58" viewBox="0 0 126 58" fill="currentColor" xmlns="http://www.w3.org/2000/svg">
<path d="M49.1317 51.791L49.0983 52.1093C49.0819 52.2685 49.0354 52.4237 48.9594 52.575C48.8835 52.7263 48.7865 52.8645 48.6673 52.9909C48.5488 53.1173 48.4138 53.2234 48.2632 53.3092C48.1126 53.395 47.9547 53.45 47.789 53.4736C47.6475 53.4939 47.5061 53.4952 47.3639 53.4775C47.2218 53.4599 47.0974 53.4114 46.9906 53.3315C46.8838 53.2522 46.8007 53.1415 46.7411 53.0007C46.6815 52.8593 46.6638 52.6706 46.6887 52.4342L46.986 49.5975C47.0037 49.4285 47.0496 49.2674 47.1229 49.1148C47.1963 48.9616 47.2925 48.824 47.4111 48.7028C47.5296 48.5817 47.6659 48.4795 47.8211 48.3976C47.9757 48.3158 48.1433 48.262 48.3241 48.2365C48.6752 48.1861 48.9483 48.2588 49.1435 48.454C49.2391 48.5496 49.3092 48.6688 49.3544 48.8122C49.3996 48.9557 49.4127 49.1161 49.3937 49.2949L49.3635 49.5844L48.6182 49.6918L48.6437 49.4462C48.6588 49.3015 48.6306 49.1823 48.5592 49.088C48.4872 48.9936 48.3811 48.957 48.2396 48.9773C48.0543 49.0035 47.9252 49.0781 47.8525 49.2C47.7798 49.3224 47.7346 49.4705 47.7163 49.644L47.4406 52.2783C47.4248 52.4276 47.4445 52.5488 47.4995 52.6405C47.5545 52.7322 47.6672 52.7663 47.8381 52.7414C47.8866 52.7342 47.9396 52.7184 47.9979 52.6936C48.0556 52.6687 48.1113 52.6333 48.1636 52.5881C48.2115 52.5429 48.2534 52.4846 48.2901 52.4132C48.3261 52.3412 48.3497 52.2547 48.3601 52.1539L48.387 51.9004L49.1323 51.793L49.1317 51.791Z" fill="currentColor"/>
<path d="M50.0011 53.1134L50.4681 48.6557L49.6055 48.7801L49.6782 48.0852L52.1487 47.7296L52.076 48.4245L51.2134 48.5489L50.7464 53.006L50.0011 53.1134Z" fill="currentColor"/>
<path d="M52.0984 52.1276C52.1665 52.1178 52.2451 52.0995 52.3342 52.0726C52.4233 52.0457 52.4947 52.0045 52.549 51.9488C52.5923 51.9049 52.6407 51.8375 52.6964 51.7458C52.7514 51.6547 52.8064 51.529 52.8621 51.3692L52.9577 51.0777L52.2006 47.723L52.9898 47.6097L53.4378 49.9328L53.4522 49.9309L54.2546 47.4282L55.0438 47.3149L53.5518 51.3855C53.4588 51.6311 53.3638 51.8519 53.2669 52.0464C53.1693 52.2409 53.0442 52.404 52.8916 52.535C52.7645 52.6483 52.6355 52.7249 52.5038 52.7656C52.3722 52.8055 52.2288 52.8369 52.0729 52.8592L51.9707 52.8743L52.048 52.1361L52.0991 52.1289L52.0984 52.1276Z" fill="currentColor"/>
<path d="M54.8377 52.4178L54.7545 53.2136L54.1113 53.306L54.2633 51.8585L54.6432 51.8041C54.6969 51.7059 54.7493 51.5952 54.8004 51.4714C54.8514 51.3476 54.8986 51.2186 54.9418 51.0837C54.9851 50.9494 55.0257 50.8119 55.0643 50.6704C55.103 50.5296 55.1364 50.3927 55.1645 50.2604C55.1848 50.1582 55.2051 50.0429 55.2261 49.9165C55.2464 49.7901 55.266 49.6604 55.285 49.5268C55.304 49.3932 55.3211 49.2602 55.3374 49.1273C55.3538 48.9943 55.3682 48.8673 55.3807 48.7467L55.5385 47.2416L57.6802 46.9338L57.2087 51.4347L57.6324 51.3738L57.4811 52.8213L56.838 52.9136L56.9211 52.1179L54.8383 52.4172L54.8377 52.4178ZM56.1719 47.7925L56.0834 48.6393C56.0762 48.7068 56.0638 48.805 56.0454 48.9334C56.0271 49.0618 56.0055 49.2019 55.9799 49.3526C55.9544 49.5039 55.9289 49.6558 55.9033 49.8091C55.8778 49.9624 55.8516 50.0979 55.8247 50.2158C55.8051 50.3141 55.7776 50.4261 55.7429 50.5518C55.7081 50.6782 55.6688 50.8086 55.6263 50.9428C55.5837 51.0771 55.5378 51.2107 55.4907 51.3437C55.4435 51.4766 55.3924 51.5965 55.3381 51.7039L56.4633 51.5421L56.8668 47.6922L56.1725 47.7925H56.1719Z" fill="currentColor"/>
<path d="M59.6888 51.7212L60.0392 48.3782L60.0242 48.3802L58.6946 51.864L57.9492 51.9714L58.4889 46.8194L59.2343 46.712L58.8832 50.0622L58.8983 50.0602L60.2285 46.5692L60.9739 46.4618L60.4342 51.6138L59.6888 51.7212Z" fill="currentColor"/>
<path d="M62.7462 51.2811L62.9767 49.081L62.6335 49.1308L61.7526 51.4239L60.9922 51.5332L61.9412 49.1374C61.8286 49.1112 61.7336 49.0607 61.655 48.9861C61.5764 48.9114 61.5162 48.823 61.4742 48.7195C61.4323 48.6167 61.4094 48.4916 61.4055 48.3449C61.4015 48.1982 61.4081 48.0449 61.4245 47.8864C61.5299 46.8784 62.0211 46.3105 62.8988 46.1848L64.0312 46.0217L63.4915 51.1737L62.7462 51.2811ZM62.8916 46.8699C62.6283 46.9079 62.4495 47.0015 62.3545 47.1502C62.2595 47.2995 62.1986 47.5039 62.1711 47.7646C62.1574 47.8949 62.1528 48.0082 62.1574 48.1051C62.1613 48.2021 62.1796 48.2813 62.2117 48.3429C62.2484 48.4038 62.3041 48.447 62.3781 48.4719C62.4521 48.4968 62.5549 48.5001 62.6866 48.4811L63.0449 48.43L63.2132 46.8234L62.8916 46.8692V46.8699Z" fill="currentColor"/>
<path d="M66.0401 50.8075L66.5071 46.3498L65.6445 46.4742L65.7172 45.7793L68.1878 45.4237L68.1151 46.1186L67.2525 46.243L66.7855 50.7001L66.0401 50.8075Z" fill="currentColor"/>
<path d="M67.9746 50.5286L68.5143 45.3766L69.6035 45.2201C69.8419 45.186 70.0417 45.1926 70.2022 45.241C70.3626 45.2895 70.4903 45.3661 70.5846 45.4709C70.679 45.5757 70.7412 45.7041 70.7713 45.8534C70.8008 46.0034 70.8073 46.1632 70.7897 46.3322L70.77 46.5202C70.7556 46.6604 70.732 46.7802 70.6999 46.8798C70.6678 46.9793 70.6266 47.0684 70.5748 47.147C70.4779 47.2937 70.339 47.428 70.1583 47.5491C70.3253 47.6061 70.4419 47.7076 70.508 47.855C70.5742 48.0024 70.5932 48.2133 70.5643 48.4884L70.5342 48.7779C70.4864 49.2311 70.3397 49.5946 70.0921 49.8677C69.8452 50.1408 69.4778 50.3124 68.9911 50.3825L67.9753 50.5286H67.9746ZM68.9702 48.0338L68.7973 49.6837L69.1188 49.6378C69.2695 49.6162 69.39 49.5776 69.4797 49.5219C69.5695 49.4662 69.6402 49.3961 69.6926 49.313C69.7443 49.2298 69.781 49.1342 69.802 49.0267C69.8229 48.9193 69.84 48.8027 69.8531 48.677C69.8668 48.5466 69.8714 48.4347 69.8668 48.3403C69.8622 48.246 69.8413 48.1681 69.8046 48.1065C69.7627 48.0463 69.7024 48.0063 69.6225 47.9867C69.5426 47.967 69.4352 47.9677 69.2983 47.9867L68.9695 48.0338H68.9702ZM69.187 45.9641L69.0383 47.3821L69.3743 47.3337C69.6232 47.2976 69.7961 47.2125 69.8943 47.0769C69.9919 46.9413 70.0541 46.756 70.0784 46.5195C70.1026 46.2883 70.0731 46.1213 69.9906 46.0191C69.9074 45.917 69.7417 45.8836 69.4935 45.9196L69.1863 45.9635L69.187 45.9641Z" fill="currentColor"/>
<path d="M71.4595 46.1512C71.4811 45.9436 71.5368 45.7549 71.6265 45.5853C71.7162 45.4157 71.8276 45.269 71.9605 45.1452C72.0883 45.0266 72.2291 44.931 72.383 44.8563C72.5369 44.7817 72.6895 44.7338 72.8408 44.7122C72.9915 44.6906 73.1388 44.6952 73.2823 44.7273C73.4251 44.7594 73.5521 44.817 73.6635 44.9009C73.7689 44.9899 73.8501 45.1091 73.9065 45.2578C73.9628 45.4065 73.9805 45.5847 73.9582 45.7923L73.6733 48.513C73.6504 48.7305 73.5947 48.921 73.5056 49.0861C73.4165 49.2511 73.3078 49.3926 73.1801 49.5105C73.0471 49.6343 72.9037 49.7332 72.7491 49.8072C72.5946 49.8812 72.4419 49.9297 72.2913 49.9513C72.14 49.9729 71.9933 49.9683 71.8505 49.9362C71.7077 49.9048 71.5833 49.8439 71.4772 49.7548C71.3658 49.671 71.282 49.5577 71.225 49.4136C71.168 49.2695 71.151 49.0894 71.1739 48.8719L71.4588 46.1512H71.4595ZM71.9199 48.7645C71.9009 48.9427 71.937 49.0678 72.0287 49.1372C72.1197 49.2073 72.2337 49.2328 72.3699 49.2132C72.5061 49.1935 72.6286 49.1346 72.738 49.035C72.8467 48.9361 72.9102 48.7979 72.9292 48.6191L73.2141 45.8984C73.2331 45.7202 73.1965 45.5951 73.1054 45.5257C73.0144 45.4556 72.9004 45.4307 72.7642 45.4497C72.628 45.4694 72.5055 45.529 72.3968 45.6272C72.288 45.7261 72.2245 45.865 72.2055 46.0431L71.9206 48.7639L71.9199 48.7645Z" fill="currentColor"/>
<path d="M74.1999 49.6334L74.7396 44.4815L75.8576 44.3203C76.0619 44.2909 76.2394 44.2915 76.3901 44.3223C76.5407 44.3531 76.6717 44.4264 76.7844 44.5437C76.897 44.6609 76.9678 44.8063 76.9979 44.9799C77.0274 45.1541 77.026 45.3951 76.994 45.7036C76.9697 45.9355 76.9357 46.1326 76.8924 46.2957C76.8492 46.4588 76.7759 46.6167 76.6737 46.7693C76.5538 46.9526 76.4032 47.1039 76.2231 47.2225C76.0423 47.341 75.8137 47.4203 75.536 47.4603L75.1555 47.5146L74.9446 49.526L74.1992 49.6334H74.1999ZM75.4122 45.069L75.2288 46.8203L75.5871 46.7686C75.7377 46.747 75.8576 46.7083 75.9447 46.6533C76.0318 46.5977 76.0993 46.5289 76.1464 46.4464C76.1929 46.3684 76.2257 46.2761 76.244 46.168C76.2624 46.0612 76.2787 45.942 76.2925 45.8123C76.3049 45.6918 76.3148 45.5772 76.3213 45.4698C76.3279 45.3617 76.3161 45.27 76.2853 45.1934C76.2552 45.1174 76.2028 45.0624 76.1294 45.0303C76.056 44.9982 75.9467 44.9923 75.8 45.0133L75.4122 45.069Z" fill="currentColor"/>
<path d="M79.4594 48.8785L78.7141 48.9859L78.9538 46.6994C78.9145 46.7099 78.8647 46.723 78.8058 46.7387C78.7462 46.7544 78.6682 46.7688 78.5706 46.7832C78.4003 46.8075 78.2366 46.8075 78.0814 46.7826C77.9255 46.757 77.7991 46.702 77.7028 46.6162C77.6059 46.5304 77.541 46.4112 77.5063 46.2593C77.4716 46.1073 77.4637 45.9423 77.4827 45.7641L77.6609 44.0638L78.4062 43.9564L78.2373 45.5702C78.2287 45.6521 78.2301 45.7327 78.2412 45.8119C78.2517 45.8912 78.2811 45.9534 78.3296 45.9986C78.4128 46.0772 78.5464 46.1027 78.7318 46.0765C78.7704 46.0706 78.8097 46.0641 78.849 46.0556C78.8883 46.0477 78.9204 46.0392 78.9453 46.0313C78.9748 46.0228 79.0023 46.0137 79.0271 46.0052L79.2544 43.8346L79.9998 43.7272L79.4601 48.8791L79.4594 48.8785Z" fill="currentColor"/>
<path d="M80.1582 48.7777L80.6979 43.6258L82.9195 43.3061L82.8468 44.0011L81.3705 44.2133L81.212 45.7256L82.4984 45.5402L82.4257 46.2352L81.1393 46.4205L80.9808 47.9328L82.4571 47.7206L82.3799 48.4588L80.1582 48.7784V48.7777Z" fill="currentColor"/>
<path d="M85.3873 46.5789L85.3539 46.8972C85.3368 47.057 85.291 47.2116 85.215 47.3629C85.139 47.5142 85.0421 47.6524 84.9229 47.7788C84.8043 47.9052 84.6688 48.0113 84.5188 48.0971C84.3681 48.1829 84.2103 48.238 84.0446 48.2615C83.9031 48.2818 83.7616 48.2831 83.6195 48.2661C83.4774 48.2484 83.3529 48.2 83.2462 48.1201C83.1394 48.0401 83.0562 47.9301 82.9966 47.7887C82.937 47.6478 82.92 47.4592 82.9442 47.2228L83.2409 44.3861C83.2586 44.2171 83.3045 44.056 83.3778 43.9034C83.4512 43.7501 83.5475 43.6132 83.666 43.4914C83.7846 43.3702 83.9208 43.2687 84.076 43.1869C84.2306 43.105 84.3983 43.0513 84.579 43.0257C84.9301 42.9753 85.2032 43.0473 85.3984 43.2425C85.494 43.3381 85.5641 43.4573 85.6093 43.6008C85.6538 43.7442 85.6676 43.9054 85.6486 44.0835L85.6185 44.373L84.8731 44.4804L84.8987 44.2348C84.9137 44.0901 84.8856 43.9709 84.8142 43.8765C84.7421 43.7822 84.636 43.7455 84.4945 43.7658C84.3092 43.792 84.1808 43.8667 84.1075 43.9892C84.0348 44.111 83.9896 44.259 83.9712 44.4326L83.6955 47.0669C83.6798 47.2162 83.6994 47.3374 83.7544 47.4291C83.8094 47.5214 83.9221 47.5548 84.093 47.5306C84.1415 47.5234 84.1946 47.5077 84.2529 47.4828C84.3105 47.4579 84.3662 47.4225 84.4186 47.3767C84.4664 47.3321 84.5083 47.2738 84.545 47.2018C84.5817 47.1304 84.6046 47.0433 84.6157 46.9424L84.6419 46.689L85.3873 46.5815V46.5789Z" fill="currentColor"/>
<path d="M88.9097 43.1295C88.8415 43.1393 88.7846 43.1557 88.7387 43.1793C88.6929 43.2022 88.6483 43.2389 88.6051 43.2874C88.5612 43.3365 88.5291 43.3935 88.5082 43.4583C88.4872 43.5231 88.4676 43.5945 88.4499 43.6731L88.3215 44.2829C88.3097 44.3464 88.2966 44.4054 88.2815 44.4598C88.2665 44.5095 88.2521 44.56 88.237 44.6124C88.2219 44.6648 88.203 44.7113 88.1794 44.7525C88.1434 44.8246 88.1014 44.8881 88.0549 44.9451C88.0084 45.0014 87.9639 45.0473 87.922 45.082L88.4224 47.5898L87.662 47.6992L87.2441 45.4998L86.8275 45.5594L86.5871 47.8531L85.8418 47.9605L86.3815 42.8086L87.1268 42.7012L86.8956 44.9084L87.1445 44.873C87.2323 44.8606 87.3043 44.8383 87.36 44.8062C87.4163 44.7741 87.4635 44.7342 87.5021 44.6857C87.5408 44.6372 87.5703 44.5842 87.5912 44.5266C87.6115 44.4689 87.6299 44.406 87.6469 44.3366L87.7844 43.7111C87.791 43.6915 87.8015 43.6509 87.8152 43.5893C87.829 43.5284 87.8493 43.4577 87.8768 43.3777C87.9043 43.2978 87.9397 43.2147 87.9822 43.1275C88.0248 43.0404 88.0765 42.9573 88.1381 42.8767C88.2429 42.7477 88.3647 42.6481 88.5042 42.578C88.6437 42.5086 88.8029 42.4601 88.9837 42.4346L88.911 43.1295H88.9097Z" fill="currentColor"/>
<path d="M89.2329 43.5959C89.2545 43.3883 89.3102 43.1996 89.3999 43.03C89.4897 42.8603 89.601 42.7136 89.734 42.5898C89.8617 42.4713 90.0025 42.3757 90.1564 42.301C90.3104 42.2263 90.463 42.1785 90.6143 42.1569C90.7656 42.1353 90.9123 42.1399 91.0557 42.172C91.1985 42.2041 91.3255 42.2617 91.4369 42.3455C91.5423 42.4346 91.6236 42.5538 91.6805 42.7025C91.7369 42.8512 91.7539 43.0293 91.7323 43.2363L91.4474 45.957C91.4245 46.1738 91.3688 46.3651 91.2791 46.5301C91.19 46.6952 91.0812 46.8367 90.9535 46.9546C90.8206 47.0783 90.6771 47.1772 90.5232 47.2519C90.3686 47.3266 90.216 47.3744 90.0654 47.396C89.9141 47.4176 89.7674 47.413 89.624 47.3809C89.4812 47.3495 89.3567 47.2886 89.2506 47.1995C89.1393 47.1157 89.0554 47.0024 88.9985 46.8583C88.9415 46.7142 88.9244 46.5341 88.9474 46.3166L89.2323 43.5959H89.2329ZM89.6934 46.2092C89.6744 46.3873 89.7104 46.5124 89.8021 46.5819C89.8931 46.6519 90.0071 46.6775 90.1433 46.6579C90.2796 46.6382 90.402 46.5793 90.5114 46.4804C90.6201 46.3815 90.6837 46.2433 90.7027 46.0644L90.9876 43.3437C91.0066 43.1656 90.9706 43.0411 90.8789 42.971C90.7872 42.901 90.6739 42.8761 90.5376 42.8951C90.4014 42.914 90.2789 42.9737 90.1702 43.0726C90.0615 43.1715 89.9979 43.3103 89.9789 43.4885L89.694 46.2092H89.6934Z" fill="currentColor"/>
<path d="M91.9805 47.078L92.5202 41.9261L94.5958 41.6274L94.5231 42.3223L93.1928 42.5136L92.7258 46.9713L91.9805 47.078Z" fill="currentColor"/>
<path d="M94.703 42.8098C94.7246 42.6022 94.7803 42.4135 94.87 42.2439C94.9597 42.0743 95.0711 41.9276 95.204 41.8038C95.3317 41.6859 95.4726 41.5896 95.6265 41.5149C95.7804 41.4403 95.933 41.3925 96.0843 41.3709C96.2356 41.3492 96.3823 41.3538 96.5257 41.3859C96.6685 41.418 96.7963 41.4756 96.9069 41.5588C97.013 41.6485 97.0936 41.7671 97.1506 41.9158C97.2069 42.0644 97.2239 42.2426 97.2023 42.4496L96.9174 45.1703C96.8945 45.3871 96.8388 45.5784 96.7491 45.7434C96.66 45.9085 96.5513 46.0499 96.4236 46.1678C96.2906 46.2916 96.1472 46.3905 95.9933 46.4645C95.8387 46.5392 95.6861 46.587 95.5354 46.6086C95.3841 46.6302 95.2374 46.6256 95.0946 46.5936C94.9512 46.5615 94.8274 46.5012 94.7213 46.4121C94.61 46.3283 94.5261 46.2143 94.4692 46.0709C94.4122 45.9275 94.3951 45.7467 94.4181 45.5292L94.703 42.8085V42.8098ZM95.1634 45.4231C95.1451 45.6019 95.1804 45.7264 95.2721 45.7958C95.3632 45.8659 95.4771 45.8908 95.6134 45.8718C95.7496 45.8521 95.8727 45.7932 95.9815 45.6943C96.0902 45.5954 96.1537 45.4572 96.1727 45.2784L96.4576 42.5576C96.476 42.3795 96.4399 42.2551 96.3489 42.185C96.2579 42.1149 96.1439 42.0893 96.0077 42.109C95.8714 42.1286 95.749 42.1882 95.6402 42.2871C95.5315 42.386 95.468 42.5242 95.449 42.703L95.1641 45.4238L95.1634 45.4231Z" fill="currentColor"/>
<path d="M98.8047 46.0959L99.3444 40.944L100.462 40.7828C100.667 40.7534 100.844 40.754 100.995 40.7848C101.146 40.8156 101.277 40.889 101.389 41.0062C101.502 41.1234 101.573 41.2682 101.603 41.4424C101.632 41.616 101.631 41.8577 101.599 42.1661C101.575 42.3973 101.54 42.5951 101.497 42.7582C101.454 42.9213 101.381 43.0792 101.278 43.2318C101.159 43.4158 101.008 43.5665 100.828 43.685C100.647 43.8036 100.419 43.8828 100.141 43.9228L99.7609 43.9771L99.55 45.9892L98.8047 46.0966V46.0959ZM100.017 41.5308L99.8336 43.2822L100.192 43.2305C100.343 43.2089 100.462 43.1702 100.55 43.1145C100.637 43.0595 100.704 42.9901 100.751 42.9076C100.798 42.8296 100.83 42.7366 100.849 42.6292C100.867 42.5224 100.884 42.4032 100.897 42.2736C100.909 42.153 100.919 42.0384 100.925 41.931C100.932 41.8229 100.92 41.7312 100.889 41.6546C100.859 41.578 100.807 41.5236 100.734 41.4915C100.66 41.4594 100.55 41.4535 100.404 41.4745L100.016 41.5302L100.017 41.5308Z" fill="currentColor"/>
<path d="M101.17 45.756L102.872 40.4363L103.493 40.3472L104.115 45.3322L103.37 45.4396L103.266 44.3642L102.251 44.5102L101.915 45.6485L101.17 45.756ZM103.2 43.6889L103.031 41.8746L103.016 41.8766L102.456 43.7963L103.201 43.6889H103.2Z" fill="currentColor"/>
<path d="M104.718 41.4543C104.733 41.3095 104.781 41.1412 104.861 40.9493C104.941 40.7574 105.051 40.5871 105.191 40.4384C105.315 40.3114 105.451 40.2013 105.6 40.109C105.749 40.016 105.916 39.9564 106.101 39.9302C106.321 39.8988 106.505 39.9092 106.656 39.961C106.807 40.0134 106.926 40.0946 107.016 40.2053C107.109 40.3153 107.172 40.4535 107.202 40.6205C107.232 40.7869 107.238 40.967 107.218 41.1602C107.208 41.2565 107.195 41.3547 107.18 41.4543C107.165 41.5545 107.136 41.656 107.094 41.7589C107.052 41.8623 106.991 41.9625 106.911 42.0595C106.831 42.1564 106.722 42.2507 106.583 42.3418C106.709 42.3758 106.803 42.4302 106.865 42.5042C106.926 42.5782 106.968 42.6653 106.989 42.7642C107.01 42.8631 107.016 42.9738 107.008 43.0963C106.999 43.2188 106.989 43.3452 106.975 43.4755C106.952 43.6923 106.907 43.8986 106.842 44.0931C106.776 44.2877 106.683 44.456 106.562 44.5968C106.442 44.7376 106.296 44.8608 106.124 44.9662C105.952 45.0717 105.747 45.1418 105.508 45.1758C105.328 45.2014 105.163 45.1941 105.014 45.1542C104.865 45.1136 104.739 45.0461 104.639 44.9512C104.538 44.8562 104.468 44.7265 104.428 44.5608C104.388 44.3958 104.377 44.2261 104.395 44.0525L104.415 43.8574L105.161 43.7499L105.147 43.9517C105.14 44.0191 105.142 44.0846 105.151 44.1469C105.162 44.2097 105.184 44.2648 105.217 44.3119C105.25 44.3597 105.297 44.3957 105.356 44.42C105.416 44.4449 105.495 44.4501 105.592 44.4364C105.812 44.4049 105.966 44.3152 106.056 44.1665C106.146 44.0185 106.203 43.8259 106.228 43.5895C106.243 43.4546 106.251 43.3282 106.254 43.2116C106.256 43.0943 106.241 43.0053 106.21 42.943C106.138 42.8062 106 42.7524 105.795 42.7819L105.51 42.8232L105.578 42.1715L105.885 42.1276C105.977 42.1145 106.063 42.0857 106.139 42.0412C106.216 41.9973 106.281 41.9311 106.333 41.8427C106.38 41.7595 106.413 41.6645 106.431 41.5571C106.45 41.4504 106.463 41.3554 106.472 41.2735C106.481 41.1871 106.482 41.1026 106.477 41.0201C106.472 40.9375 106.452 40.8681 106.42 40.8105C106.387 40.7587 106.34 40.7175 106.278 40.6886C106.216 40.6598 106.134 40.6526 106.032 40.667C105.939 40.6808 105.861 40.7089 105.797 40.7509C105.732 40.7934 105.677 40.8439 105.633 40.9028C105.583 40.967 105.543 41.0463 105.514 41.1406C105.485 41.2349 105.466 41.3259 105.457 41.4124L105.444 41.5283L104.699 41.6357L104.718 41.4549V41.4543Z" fill="currentColor"/>
<path d="M107.533 44.8421L108.073 39.6901L109.162 39.5336C109.401 39.4995 109.6 39.506 109.761 39.5545C109.921 39.6023 110.049 39.6796 110.143 39.7844C110.238 39.8899 110.3 40.0176 110.33 40.1676C110.359 40.3176 110.366 40.4774 110.348 40.6457L110.329 40.8337C110.314 40.9738 110.291 41.0937 110.259 41.1932C110.226 41.2928 110.185 41.3819 110.133 41.4605C110.036 41.6072 109.898 41.7415 109.717 41.8626C109.884 41.9196 110 42.0218 110.067 42.1685C110.133 42.3159 110.152 42.5268 110.123 42.8018L110.093 43.0913C110.045 43.5446 109.898 43.9081 109.651 44.1812C109.404 44.4543 109.037 44.6259 108.55 44.696L107.535 44.8421H107.533ZM108.529 42.3466L108.356 43.9965L108.677 43.95C108.828 43.9284 108.949 43.8897 109.038 43.8341C109.128 43.7784 109.199 43.709 109.251 43.6251C109.303 43.542 109.34 43.4463 109.361 43.3389C109.382 43.2308 109.399 43.1149 109.412 42.9892C109.425 42.8588 109.43 42.7468 109.425 42.6518C109.421 42.5575 109.401 42.4796 109.364 42.4187C109.322 42.3584 109.262 42.3185 109.182 42.2988C109.102 42.2792 108.994 42.2792 108.858 42.2988L108.529 42.346V42.3466ZM108.746 40.2776L108.597 41.6956L108.933 41.6471C109.182 41.6118 109.355 41.526 109.453 41.391C109.551 41.2555 109.613 41.0694 109.637 40.8337C109.661 40.6025 109.632 40.4354 109.549 40.3333C109.466 40.2311 109.3 40.1977 109.052 40.2337L108.745 40.2783L108.746 40.2776Z" fill="currentColor"/>
<path d="M112.384 44.1441L112.735 40.8012L112.719 40.8031L111.39 44.2869L110.645 44.3943L111.184 39.2424L111.93 39.1349L111.579 42.4851L111.594 42.4831L112.924 38.9922L113.669 38.8854L113.129 44.0374L112.384 44.1448V44.1441Z" fill="currentColor"/>
<path d="M114.316 43.8649L114.783 39.4079L113.92 39.5317L113.993 38.8368L116.463 38.4811L116.39 39.1761L115.528 39.2998L115.061 43.7575L114.316 43.8643V43.8649Z" fill="currentColor"/>
<path d="M117.995 43.3365L118.345 39.9936L118.331 39.9956L117.001 43.4793L116.256 43.5861L116.796 38.4341L117.541 38.3267L117.19 41.6769L117.204 41.6749L118.534 38.1839L119.28 38.0765L118.74 43.2285L117.995 43.3359V43.3365Z" fill="currentColor"/>
<path d="M121.051 42.8975L121.281 40.6975L120.938 40.7472L120.057 43.0409L119.297 43.1503L120.246 40.7544C120.133 40.7276 120.038 40.6778 119.959 40.6031C119.88 40.5291 119.82 40.4401 119.778 40.3372C119.736 40.2337 119.713 40.1086 119.71 39.9626C119.706 39.8159 119.712 39.6626 119.729 39.5035C119.834 38.4955 120.326 37.9276 121.203 37.8019L122.335 37.6387L121.796 42.7914L121.05 42.8988L121.051 42.8975ZM121.196 38.4863C120.933 38.5243 120.754 38.6173 120.659 38.7666C120.564 38.9153 120.503 39.1203 120.476 39.381C120.463 39.5113 120.458 39.6253 120.463 39.7215C120.467 39.8185 120.485 39.8977 120.517 39.9593C120.554 40.0209 120.609 40.0634 120.683 40.0883C120.757 40.1139 120.86 40.1165 120.992 40.0975L121.35 40.0464L121.519 38.4398L121.197 38.4863H121.196Z" fill="currentColor"/>
<path d="M44.2328 49.2787L46.1866 29.2774C46.3614 27.486 47.5148 25.9436 47.8377 25.5427L47.6006 25.2035C46.8854 25.5375 46.1695 25.6816 45.451 25.6816C43.2726 25.6816 41.07 24.354 38.773 22.9694C36.1092 21.364 33.3551 19.7044 30.4981 20.1131L30.4516 19.7889L42.8999 18.0073C43.7501 17.8855 44.4568 18.0466 45.0004 18.4848C45.7471 19.0874 45.9652 20.0351 46.0254 20.4261L46.1872 20.4006L47.1559 10.4851C42.2712 11.1846 27.6025 13.2837 22.666 13.9898C24.9217 16.18 24.7659 18.6191 24.5727 20.6305C25.4889 20.4995 26.7714 20.3148 27.4172 20.2218L27.8999 20.1524L27.5567 20.4988C26.2585 21.8114 23.173 24.9467 22.5527 25.5768L22.6084 25.637C25.8754 23.5785 30.3259 26.0235 33.9099 27.993C35.9376 29.1071 37.6884 30.0692 38.8974 30.1013L39.073 30.1059L37.2973 48.2838C37.1795 49.4936 36.0994 50.6339 34.9395 50.7734C34.1299 50.8709 33.3302 50.5991 32.7466 50.0287C32.1631 49.4575 31.8736 48.6644 31.9528 47.8516C32.0864 46.4866 33.0859 45.7386 33.5621 45.4563L32.2475 44.5453L32.6595 40.2828C31.6941 39.6985 30.2348 38.8143 28.8614 37.9812C27.7636 37.3158 26.7203 36.6831 26.0273 36.2632C25.8996 37.5804 25.5931 40.7661 25.2414 44.415C24.7698 49.3141 24.2373 54.8466 24.0166 57.1075L38.7638 54.9972C41.6954 54.5774 43.9439 52.2254 44.2321 49.2774L44.2328 49.2787Z" fill="currentColor"/>
<path d="M123.285 26.7312C123.413 25.4186 125.05 8.66588 125.365 5.44083C123.885 4.57103 121.631 2.23476 120.494 1.52588e-05C117.979 0.358937 108.92 1.64988 107.497 1.85292L109.371 8.06593L111.686 7.73452L108.028 10.5129L108.504 11.8883L108.501 11.9237L106.219 35.5477C107.326 35.3885 112.646 34.6229 116.228 34.1107C120.012 33.569 122.914 30.5346 123.285 26.7305L123.285 26.7312ZM115.152 29.038C115.093 29.038 115.031 29.0347 114.968 29.0288L114.955 29.0275C114.578 28.9908 114.238 28.8094 113.998 28.5173C113.758 28.2252 113.646 27.8571 113.683 27.4804C113.683 27.4804 114.579 18.3044 115.181 12.132L115.666 7.16601L118.643 6.74028L118.622 6.94856C118.61 7.06449 117.446 18.6286 116.914 23.8454L116.906 23.9305L116.831 23.9718C116.49 24.1611 116.111 24.3713 115.9 24.4886C116.269 24.9935 116.506 25.5057 116.561 26.3329C116.612 27.0855 116.614 28.1492 116.045 28.7013C115.814 28.9253 115.515 29.0386 115.152 29.0386V29.038Z" fill="currentColor"/>
<path d="M99.9331 2.93506C99.8454 3.83302 99.6705 5.67217 99.4858 7.61414C99.2913 9.65567 99.0909 11.7666 98.9998 12.6901L98.9566 13.1322L98.7025 12.7674C97.5713 11.1438 95.0013 7.04891 95.184 3.61426C93.5623 3.84678 88.6527 4.54562 87.6283 4.69168L89.4989 10.8975L91.6989 10.5988L88.0488 13.3772L88.6507 15.1201L88.6481 15.1535C88.614 15.6362 88.5505 16.5479 88.5459 16.6199V16.6311C88.2453 19.6996 87.7036 25.2681 87.232 30.1155C86.8842 33.6956 86.5738 36.8826 86.4277 38.3799L93.1097 37.4236C93.2656 35.8249 94.8375 19.7035 95.2763 15.2065L95.315 14.8122L95.5658 15.1188C96.5463 16.3154 98.1615 18.6091 97.9669 20.5222C97.8117 22.0418 97.2832 22.6797 96.9982 22.9181C97.1974 23.1231 97.5772 23.5148 97.8549 23.8017L97.9073 23.856L97.9001 23.9313C97.7285 25.7076 97.1928 31.1871 96.9707 33.4604C96.8345 34.8496 96.7127 36.1032 96.6334 36.9193L103.321 35.9624L106.597 1.98077C105.597 2.12421 101.244 2.74774 99.9331 2.93441V2.93506Z" fill="currentColor"/>
<path d="M4.68674 50.0623L6.11457 49.8579C6.11457 49.8579 8.89621 49.4597 11.9988 49.0163C14.284 48.6895 16.0373 46.8575 16.2613 44.5612L17.6073 30.7879L17.6898 30.748C19.7883 29.7262 22.2248 31.1167 24.375 32.3435C26.4146 33.5074 28.1758 34.5121 29.2585 33.4026L29.2598 33.4012L32.7953 29.8605C31 30.5672 29.2676 29.6476 27.439 28.677C24.2198 26.9682 23.1758 26.9079 22.2543 26.8549C21.6798 26.8208 21.1172 27.0396 20.7112 27.4529C19.9173 28.2611 18.7724 29.421 17.9524 30.2515L17.6282 30.5797L17.6734 30.1205C18.3434 23.265 18.9833 16.7173 19.2021 14.4858L2.36357 16.8954C4.73652 18.9016 5.14391 20.9824 5.30568 22.9552L14.5833 21.6276L10.305 24.7812C10.6188 25.1899 11.4368 26.4645 11.2423 28.4562L9.96184 41.5608C9.83412 42.8688 9.53677 44.1047 8.23666 44.2907C7.55353 44.389 6.97585 44.015 6.79966 43.362C6.60645 42.6468 6.93459 41.6637 8.07881 41.1037L6.95685 39.9693L7.62754 33.1019L0.518533 38.3757L0.0423724 43.2487C-0.183591 45.5633 0.505434 47.7941 1.84091 49.0707C2.67468 49.8678 3.6591 50.2103 4.68805 50.0636L4.68674 50.0623Z" fill="currentColor"/>
<path d="M69.51 39.39C70.3483 40.1917 71.3341 40.5368 72.361 40.3901C72.361 40.3901 78.3835 39.5308 79.0404 39.4371C81.1527 39.1346 83.4653 37.6707 83.8714 35.0816C84.5061 28.5857 86.5705 7.16039 86.7965 4.8143L80.1414 5.76662L77.458 33.2359C77.42 33.6269 77.2314 33.98 76.9281 34.2295C76.6249 34.4791 76.2424 34.595 75.8514 34.557L75.6948 34.5419C75.3038 34.5039 74.9508 34.3153 74.7012 34.0121C74.4517 33.7088 74.3351 33.3263 74.3738 32.9353C74.3947 32.7139 76.4723 11.0208 76.9406 6.2251L67.3027 7.60381C67.8549 9.43051 68.9526 13.0728 69.1772 13.8168L71.8895 13.4291L69.4746 15.2322L67.6924 33.5398C67.4658 35.8591 68.1627 38.101 69.5113 39.39H69.51Z" fill="currentColor"/>
<path d="M53.0982 43.131L59.4907 42.2193C61.546 41.9252 64.046 40.5628 64.3263 37.6915L64.6138 35.1364C64.6295 34.9733 66.1949 18.5605 66.6593 13.8042L64.8902 7.9455L56.8623 9.09431C54.8077 9.48205 53.2063 10.2451 52.102 11.3618C50.9853 12.491 50.6565 13.6974 50.5772 14.5102C49.9472 20.961 48.706 33.7204 48.706 33.7204L48.4525 36.3154C48.2266 38.63 48.9156 40.8615 50.2504 42.1387C51.0842 42.9358 52.0686 43.279 53.0976 43.1316L53.0982 43.131ZM55.1103 35.8045C55.1201 35.7043 56.0763 25.7174 56.3691 22.717L56.3776 22.6331L57.8598 21.783C56.9127 21.0193 56.3671 19.655 56.4877 18.2986C56.5767 17.2958 57.1223 15.4383 59.7756 14.2692L60.0317 14.1566L60.0042 14.4349C59.678 17.7759 57.8906 36.0763 57.8906 36.0763C57.8205 36.7968 57.2114 37.3371 56.5014 37.3371C56.4562 37.3371 56.4104 37.3352 56.3645 37.3306C55.5982 37.2559 55.0356 36.5715 55.1103 35.8052V35.8045Z" fill="currentColor"/>
</svg>
