<svg width="17" height="21" viewBox="0 0 17 21" fill="currentColor" xmlns="http://www.w3.org/2000/svg">
<path d="M8.38095 0.553757C3.96995 0.553757 0.380947 4.14276 0.380947 8.54876C0.351947 14.9938 7.49695 20.1528 7.80095 20.3678C7.97019 20.4886 8.17297 20.5536 8.38095 20.5536C8.58892 20.5536 8.7917 20.4886 8.96095 20.3678C9.26495 20.1528 16.4099 14.9938 16.3809 8.55376C16.3809 4.14276 12.7919 0.553757 8.38095 0.553757ZM8.38095 18.2888C6.76995 16.9808 2.35995 12.9948 2.38095 8.55376C2.38095 5.24476 5.07195 2.55376 8.38095 2.55376C11.6899 2.55376 14.3809 5.24476 14.3809 8.55876C14.4019 12.9958 9.99295 16.9818 8.38095 18.2888Z" fill="currentColor"/>
<path d="M7.38095 10.1398L5.08795 7.84679L3.67395 9.26079L7.38095 12.9678L13.088 7.26079L11.674 5.84679L7.38095 10.1398Z" fill="currentColor"/>
</svg>
