<svg width="49" height="53" viewBox="0 0 49 53" fill="currentColor" xmlns="http://www.w3.org/2000/svg">
<path d="M17.0489 23.7742L4.69356 39.8305C4.87423 40.5925 5.06742 41.2276 5.28923 41.7678C1.60608 43.2149 -1.00737 48.8103 1.4111 51.9908C3.33943 53.3235 4.35369 52.5382 5.32322 52.0731C4.58444 49.8121 3.41277 47.195 8.45006 44.8034C8.87579 44.9805 9.34625 45.1486 9.87574 45.3257L26.9624 31.255L26.1235 31.9079C20.9181 31.67 17.7626 28.595 17.0489 23.7742ZM29.3845 4.15987C27.6994 6.06674 26.6691 8.56571 26.644 11.3044L17.8377 22.7492C18.4406 27.7847 21.6246 31.0099 26.9624 31.255L37.7794 22.3467C40.9527 22.2912 43.7969 20.8852 45.761 18.6778L45.6465 18.7887C36.9583 18.558 30.6617 15.0305 29.3845 4.16166V4.15987ZM25.5028 25.4395L23.8785 23.9691L27.3882 20.0928L29.0124 21.5632L25.5028 25.4395ZM37.5826 0.462402C34.733 0.462402 32.1392 1.55179 30.193 3.33702C31.4523 14.1772 37.6917 17.7316 46.3191 17.9981C47.7055 16.1646 48.5265 13.882 48.5265 11.4063C48.5265 11.4045 48.5265 11.4028 48.5265 11.4028C48.5247 5.36016 43.6252 0.462402 37.5826 0.464191V0.462402Z" fill="currentColor"/>
</svg>
