<svg width="36" height="33" viewBox="0 0 36 33" fill="currentColor" xmlns="http://www.w3.org/2000/svg">
<path fill-rule="evenodd" clip-rule="evenodd" d="M0.474609 4.32871C0.474609 2.39296 2.04384 0.82373 3.97959 0.82373H9.23706H12.742H19.752H23.257H30.2669H32.0194C33.9552 0.82373 35.5244 2.39296 35.5244 4.32871V18.3486V28.8636C35.5244 30.7994 33.9552 32.3686 32.0194 32.3686H23.257H12.742H3.97959C2.04384 32.3686 0.474609 30.7994 0.474609 28.8636V4.32871ZM32.0194 20.1011H30.2669C29.299 20.1011 28.5145 19.3165 28.5145 18.3486V4.32871H25.0095V18.3486V28.8636H32.0194V20.1011ZM21.5045 28.8636V20.1011H19.752C18.7841 20.1011 17.9995 19.3165 17.9995 18.3486V4.32871H14.4945V18.3486V28.8636H21.5045ZM10.9896 28.8636V20.1011H9.23706C8.2692 20.1011 7.48457 19.3165 7.48457 18.3486V4.32871H3.97959V28.8636H10.9896Z" fill="currentColor"/>
</svg>
