<svg width="22" height="13" viewBox="0 0 22 13" fill="currentColor" xmlns="http://www.w3.org/2000/svg">
<path d="M13.3052 6.07047C12.9185 5.92394 12.9185 5.36428 12.8946 4.97455C12.7979 3.58634 13.2813 1.46699 12.7012 0.565932C12.2906 0.0296645 10.3084 0.0787704 9.10041 0.15204C8.76167 0.201145 8.35101 0.273636 8.061 0.420174C7.77099 0.566712 7.48097 0.809903 7.48097 1.02893C7.48097 1.34539 8.20639 1.29707 8.47166 1.71096C8.76167 2.14979 8.76167 3.09917 8.76167 3.87863C8.76167 4.77969 8.61628 5.97382 8.25434 6.02215C7.69829 6.04631 7.3843 5.48588 7.09429 5.07199C6.51426 4.26836 5.93423 3.2691 5.49882 2.29477C5.2815 1.78345 5.16008 1.22302 4.8461 1.00399C4.36274 0.662586 3.4927 0.638423 2.64663 0.662586C1.87326 0.686749 0.761149 0.589317 0.543832 1.05232C0.374464 1.56364 0.737175 2.0508 0.930518 2.46547C1.92121 4.63315 2.98459 6.53347 4.29004 8.33558C5.49882 10.0161 6.63413 11.356 8.85757 12.0622C9.48632 12.257 12.2411 12.8175 12.7971 12.0622C12.9905 11.7699 12.9425 11.112 13.0392 10.6249C13.1359 10.1377 13.2565 9.65053 13.7159 9.62637C14.1026 9.6022 14.3199 9.94283 14.562 10.1868C14.828 10.4549 15.0453 10.674 15.2387 10.9179C15.698 11.3809 16.1814 12.0139 16.7614 12.2578C17.5588 12.5992 18.7915 12.5018 19.9516 12.4527C20.8943 12.4285 21.571 12.2337 21.6437 11.6732C21.6924 11.2344 21.2083 10.6015 20.9183 10.2359C20.1929 9.33485 19.8549 9.06672 19.0328 8.23815C18.6701 7.87258 18.2107 7.48285 18.2107 7.0448C18.1867 6.77666 18.4041 6.53347 18.5974 6.26534C19.4435 4.99872 20.2895 4.09766 21.0629 2.78194C21.2802 2.39221 21.7883 1.49115 21.595 1.05232C21.3777 0.565153 20.1689 0.710912 19.4195 0.710912C18.4528 0.710912 17.1961 0.637643 16.954 0.832508C16.4946 1.14897 16.3013 1.66107 16.084 2.14824C15.6006 3.2691 14.9479 4.41334 14.2712 5.26607C14.0291 5.55837 13.5705 6.16713 13.3045 6.06969L13.3052 6.07047Z" fill="currentColor"/>
</svg>
