<svg width="18" height="18" viewBox="0 0 18 18" fill="currentColor" xmlns="http://www.w3.org/2000/svg">
<path d="M8.96213 0.645386C13.6358 0.645386 17.4242 4.43387 17.4242 9.1075C17.4242 13.7811 13.6358 17.5696 8.96213 17.5696C7.46668 17.572 5.99756 17.1763 4.70568 16.423L0.503397 17.5696L1.64747 13.3656C0.893579 12.0734 0.497514 10.6036 0.500012 9.1075C0.500012 4.43387 4.2885 0.645386 8.96213 0.645386ZM6.07824 5.13031L5.909 5.13708C5.79943 5.14375 5.69235 5.17253 5.5942 5.2217C5.50241 5.27368 5.41861 5.33866 5.34542 5.41463C5.24387 5.51026 5.18633 5.59318 5.12456 5.67357C4.81156 6.08052 4.64304 6.58013 4.6456 7.09352C4.64729 7.50816 4.75561 7.9118 4.92485 8.28921C5.27095 9.0525 5.84045 9.86063 6.59189 10.6095C6.77298 10.7898 6.95068 10.9709 7.14193 11.1393C8.07563 11.9613 9.18828 12.5542 10.3914 12.8706L10.872 12.9442C11.0286 12.9527 11.1851 12.9408 11.3425 12.9332C11.589 12.9205 11.8296 12.8538 12.0474 12.7377C12.1582 12.6807 12.2664 12.6185 12.3715 12.5516C12.3715 12.5516 12.4079 12.5279 12.4773 12.4754C12.5915 12.3908 12.6618 12.3307 12.7565 12.2317C12.8268 12.1589 12.8877 12.0735 12.9342 11.9762C13.0002 11.8382 13.0663 11.5751 13.0933 11.3559C13.1136 11.1883 13.1077 11.0969 13.1052 11.0402C13.1018 10.9497 13.0265 10.8558 12.9444 10.816L12.4519 10.5951C12.4519 10.5951 11.7157 10.2744 11.2655 10.0696C11.2184 10.0491 11.1679 10.0373 11.1166 10.0349C11.0587 10.029 11.0002 10.0355 10.945 10.0541C10.8898 10.0726 10.8393 10.1027 10.7967 10.1424C10.7925 10.1407 10.7358 10.189 10.124 10.9302C10.0889 10.9774 10.0405 11.0131 9.98503 11.0327C9.92957 11.0523 9.86953 11.0549 9.81257 11.0402C9.75744 11.0255 9.70343 11.0068 9.65094 10.9844C9.54601 10.9404 9.50962 10.9235 9.4377 10.893C8.95203 10.6811 8.50237 10.3947 8.10491 10.0443C7.99829 9.95117 7.89928 9.84963 7.79774 9.75147C7.46483 9.43264 7.17469 9.07196 6.9346 8.67847L6.88468 8.59808C6.84882 8.54406 6.81982 8.48579 6.79836 8.42461C6.76621 8.30021 6.84998 8.20036 6.84998 8.20036C6.84998 8.20036 7.05561 7.97527 7.15123 7.85341C7.24432 7.73494 7.32301 7.61986 7.37379 7.53778C7.47364 7.377 7.50495 7.21199 7.45249 7.08421C7.21555 6.5054 6.97014 5.92913 6.71797 5.35709C6.66805 5.2437 6.51996 5.16246 6.38541 5.14638C6.33972 5.14131 6.29402 5.13623 6.24833 5.13284C6.13469 5.1272 6.02081 5.12833 5.9073 5.13623L6.07824 5.13031Z" fill="currentColor"/>
</svg>
